<?xml version="1.0" encoding="UTF-8" standalone="no"?><!-- Generator: Gravit.io --><svg xmlns="http://www.w3.org/2000/svg" xmlns:xlink="http://www.w3.org/1999/xlink" style="isolation:isolate" viewBox="0 0 86.4 364.252" width="86.4pt" height="364.252pt"><defs><clipPath id="_clipPath_WvszYWPcFKpKE9CaXqLeeF73mLdzJ6bT"><rect width="86.4" height="364.252"/></clipPath></defs><g clip-path="url(#_clipPath_WvszYWPcFKpKE9CaXqLeeF73mLdzJ6bT)"><clipPath id="_clipPath_OC89aOrk3eTkQg4cmVQ3A95RLb4bBZ5Y"><rect x="0" y="0" width="86.4" height="364.252" transform="matrix(1,0,0,1,0,0)" fill="rgb(255,255,255)"/></clipPath><g clip-path="url(#_clipPath_OC89aOrk3eTkQg4cmVQ3A95RLb4bBZ5Y)"><g><clipPath id="_clipPath_XFyNGkABfztdF0cfCfMd7K7n3g83hXpA"><rect x="0" y="0" width="86.4" height="364.252" transform="matrix(1,0,0,1,0,0)" fill="rgb(255,255,255)"/></clipPath><g clip-path="url(#_clipPath_XFyNGkABfztdF0cfCfMd7K7n3g83hXpA)"><g><g/></g></g><g><rect x="0" y="0" width="86.4" height="364.252" transform="matrix(1,0,0,1,0,0)" fill="rgb(230,230,230)"/></g><path d=" M 59 266 C 59 266 59 284 59 284 C 59 287.333 59 290.667 59 294 C 59 303.667 59 311.333 59 319 C 59 320 51 320 51 320 C 47.126 320 24 322.896 24 320 C 24 306.319 21 294.876 21 284 C 21 273.77 31.095 268 36 268 C 46.56 268 61.004 264.669 59 266 Z " fill="rgb(0,0,0)" vector-effect="non-scaling-stroke" stroke-width="1" stroke="rgb(0,0,0)" stroke-linejoin="miter" stroke-linecap="square" stroke-miterlimit="3"/><g><path d=" M 40.642 309.642 Q 40.642 311.237 39.851 312.094 Q 39.06 312.951 37.584 312.951 Q 36.107 312.951 35.316 312.094 Q 34.525 311.237 34.525 309.633 Q 34.525 308.029 35.316 307.185 Q 36.111 306.337 37.592 306.337 Q 39.073 306.337 39.856 307.19 Q 40.642 308.042 40.642 309.642 Z  M 35.953 309.642 Q 35.953 310.718 36.362 311.263 Q 36.771 311.808 37.584 311.808 Q 39.214 311.808 39.214 309.642 Q 39.214 307.471 37.592 307.471 Q 36.779 307.471 36.366 308.02 Q 35.953 308.565 35.953 309.642 Z " fill="rgb(255,255,255)"/><path d=" M 47.212 306.438 L 47.212 310.595 Q 47.212 311.307 46.891 311.843 Q 46.575 312.38 45.973 312.665 Q 45.371 312.951 44.549 312.951 Q 43.31 312.951 42.624 312.318 Q 41.939 311.681 41.939 310.578 L 41.939 306.438 L 43.296 306.438 L 43.296 310.371 Q 43.296 311.114 43.595 311.461 Q 43.894 311.808 44.584 311.808 Q 45.252 311.808 45.551 311.461 Q 45.854 311.11 45.854 310.363 L 45.854 306.438 L 47.212 306.438 Z " fill="rgb(255,255,255)"/><path d=" M 51.264 312.863 L 49.901 312.863 L 49.901 307.572 L 48.157 307.572 L 48.157 306.438 L 53.008 306.438 L 53.008 307.572 L 51.264 307.572 L 51.264 312.863 Z " fill="rgb(255,255,255)"/></g><path d=" M 18.892 246.005 L 17.378 246.005 L 17.378 238.867 L 18.892 238.867 L 18.892 246.005 Z  M 27.022 238.867 L 27.022 246.005 L 25.098 246.005 L 21.992 240.605 L 21.949 240.605 L 21.949 240.605 Q 22.041 242.036 22.041 242.646 L 22.041 242.646 L 22.041 246.005 L 20.689 246.005 L 20.689 238.867 L 22.598 238.867 L 25.699 244.213 L 25.733 244.213 L 25.733 244.213 Q 25.659 242.822 25.659 242.246 L 25.659 242.246 L 25.659 238.867 L 27.022 238.867 Z " fill="rgb(0,0,0)"/><path d=" M 50.381 239.657 L 50.381 241.585 L 50.869 241.585 L 50.869 241.585 Q 51.587 241.585 51.928 241.346 L 51.928 241.346 L 51.928 241.346 Q 52.27 241.107 52.27 240.594 L 52.27 240.594 L 52.27 240.594 Q 52.27 240.086 51.921 239.872 L 51.921 239.872 L 51.921 239.872 Q 51.572 239.657 50.84 239.657 L 50.84 239.657 L 50.381 239.657 L 50.381 239.657 Z  M 51.186 242.816 L 50.381 242.816 L 50.381 245.555 L 48.867 245.555 L 48.867 238.417 L 50.947 238.417 L 50.947 238.417 Q 52.402 238.417 53.1 238.946 L 53.1 238.946 L 53.1 238.946 Q 53.799 239.476 53.799 240.555 L 53.799 240.555 L 53.799 240.555 Q 53.799 241.185 53.452 241.676 L 53.452 241.676 L 53.452 241.676 Q 53.105 242.167 52.47 242.445 L 52.47 242.445 L 52.47 242.445 Q 54.082 244.852 54.57 245.555 L 54.57 245.555 L 52.89 245.555 L 51.186 242.816 L 51.186 242.816 Z  M 59.58 244.305 L 59.58 245.555 L 55.469 245.555 L 55.469 238.417 L 59.58 238.417 L 59.58 239.657 L 56.982 239.657 L 56.982 241.224 L 59.399 241.224 L 59.399 242.464 L 56.982 242.464 L 56.982 244.305 L 59.58 244.305 L 59.58 244.305 Z  M 65.283 243.573 L 65.283 243.573 L 65.283 243.573 Q 65.283 244.54 64.587 245.096 L 64.587 245.096 L 64.587 245.096 Q 63.891 245.653 62.651 245.653 L 62.651 245.653 L 62.651 245.653 Q 61.509 245.653 60.63 245.223 L 60.63 245.223 L 60.63 243.817 L 60.63 243.817 Q 61.352 244.139 61.853 244.271 L 61.853 244.271 L 61.853 244.271 Q 62.353 244.403 62.768 244.403 L 62.768 244.403 L 62.768 244.403 Q 63.266 244.403 63.532 244.212 L 63.532 244.212 L 63.532 244.212 Q 63.799 244.022 63.799 243.646 L 63.799 243.646 L 63.799 243.646 Q 63.799 243.436 63.681 243.272 L 63.681 243.272 L 63.681 243.272 Q 63.564 243.109 63.337 242.958 L 63.337 242.958 L 63.337 242.958 Q 63.11 242.806 62.412 242.474 L 62.412 242.474 L 62.412 242.474 Q 61.758 242.167 61.43 241.883 L 61.43 241.883 L 61.43 241.883 Q 61.103 241.6 60.908 241.224 L 60.908 241.224 L 60.908 241.224 Q 60.713 240.848 60.713 240.345 L 60.713 240.345 L 60.713 240.345 Q 60.713 239.398 61.355 238.856 L 61.355 238.856 L 61.355 238.856 Q 61.997 238.314 63.13 238.314 L 63.13 238.314 L 63.13 238.314 Q 63.686 238.314 64.192 238.446 L 64.192 238.446 L 64.192 238.446 Q 64.697 238.578 65.249 238.817 L 65.249 238.817 L 64.76 239.994 L 64.76 239.994 Q 64.189 239.759 63.816 239.667 L 63.816 239.667 L 63.816 239.667 Q 63.442 239.574 63.081 239.574 L 63.081 239.574 L 63.081 239.574 Q 62.651 239.574 62.422 239.774 L 62.422 239.774 L 62.422 239.774 Q 62.192 239.974 62.192 240.296 L 62.192 240.296 L 62.192 240.296 Q 62.192 240.497 62.285 240.646 L 62.285 240.646 L 62.285 240.646 Q 62.378 240.794 62.58 240.934 L 62.58 240.934 L 62.58 240.934 Q 62.783 241.073 63.54 241.434 L 63.54 241.434 L 63.54 241.434 Q 64.541 241.913 64.912 242.394 L 64.912 242.394 L 64.912 242.394 Q 65.283 242.875 65.283 243.573 Z  M 70.688 244.305 L 70.688 245.555 L 66.577 245.555 L 66.577 238.417 L 70.688 238.417 L 70.688 239.657 L 68.091 239.657 L 68.091 241.224 L 70.508 241.224 L 70.508 242.464 L 68.091 242.464 L 68.091 244.305 L 70.688 244.305 L 70.688 244.305 Z  M 74.931 239.676 L 74.931 245.555 L 73.418 245.555 L 73.418 239.676 L 71.479 239.676 L 71.479 238.417 L 76.87 238.417 L 76.87 239.676 L 74.931 239.676 L 74.931 239.676 Z " fill="rgb(0,0,0)"/><g><path d=" M 25.755 185.62 L 25.755 179.195 L 27.117 179.195 L 27.117 184.495 L 29.723 184.495 L 29.723 185.62 L 25.755 185.62 Z " fill="rgb(0,0,0)"/><path d=" M 34.535 185.62 L 30.835 185.62 L 30.835 179.195 L 34.535 179.195 L 34.535 180.311 L 32.197 180.311 L 32.197 181.722 L 34.372 181.722 L 34.372 182.838 L 32.197 182.838 L 32.197 184.495 L 34.535 184.495 L 34.535 185.62 Z " fill="rgb(0,0,0)"/><path d=" M 41.579 185.62 L 39.848 185.62 L 37.053 180.76 L 37.013 180.76 Q 37.097 182.047 37.097 182.597 L 37.097 185.62 L 35.88 185.62 L 35.88 179.195 L 37.598 179.195 L 40.388 184.007 L 40.419 184.007 Q 40.353 182.755 40.353 182.236 L 40.353 179.195 L 41.579 179.195 L 41.579 185.62 Z " fill="rgb(0,0,0)"/><path d=" M 45.631 182.012 L 48.18 182.012 L 48.18 185.343 Q 47.56 185.545 47.011 185.624 Q 46.466 185.708 45.895 185.708 Q 44.44 185.708 43.671 184.855 Q 42.906 183.998 42.906 182.399 Q 42.906 180.843 43.794 179.973 Q 44.686 179.103 46.264 179.103 Q 47.253 179.103 48.171 179.498 L 47.718 180.588 Q 47.015 180.237 46.255 180.237 Q 45.372 180.237 44.84 180.83 Q 44.308 181.423 44.308 182.425 Q 44.308 183.471 44.735 184.025 Q 45.165 184.574 45.983 184.574 Q 46.409 184.574 46.848 184.486 L 46.848 183.146 L 45.631 183.146 L 45.631 182.012 Z " fill="rgb(0,0,0)"/><path d=" M 52.192 185.62 L 50.83 185.62 L 50.83 180.329 L 49.085 180.329 L 49.085 179.195 L 53.937 179.195 L 53.937 180.329 L 52.192 180.329 L 52.192 185.62 Z " fill="rgb(0,0,0)"/><path d=" M 60.199 185.62 L 58.841 185.62 L 58.841 182.847 L 56.297 182.847 L 56.297 185.62 L 54.934 185.62 L 54.934 179.195 L 56.297 179.195 L 56.297 181.713 L 58.841 181.713 L 58.841 179.195 L 60.199 179.195 L 60.199 185.62 Z " fill="rgb(0,0,0)"/></g><g><path d=" M 17.509 108.195 L 19.508 108.195 Q 20.875 108.195 21.49 108.586 Q 22.11 108.973 22.11 109.821 Q 22.11 110.397 21.837 110.766 Q 21.569 111.135 21.121 111.21 L 21.121 111.254 Q 21.732 111.39 22 111.764 Q 22.272 112.137 22.272 112.757 Q 22.272 113.636 21.635 114.128 Q 21.002 114.62 19.912 114.62 L 17.509 114.62 L 17.509 108.195 Z  M 18.871 110.74 L 19.662 110.74 Q 20.216 110.74 20.462 110.568 Q 20.712 110.397 20.712 110.001 Q 20.712 109.632 20.44 109.474 Q 20.172 109.311 19.587 109.311 L 18.871 109.311 L 18.871 110.74 Z  M 18.871 111.821 L 18.871 113.495 L 19.759 113.495 Q 20.321 113.495 20.589 113.28 Q 20.857 113.064 20.857 112.62 Q 20.857 111.821 19.715 111.821 L 18.871 111.821 Z " fill="rgb(25,25,25)"/><path d=" M 28.785 108.195 L 28.785 112.352 Q 28.785 113.064 28.464 113.6 Q 28.148 114.137 27.546 114.422 Q 26.944 114.708 26.122 114.708 Q 24.883 114.708 24.197 114.075 Q 23.512 113.438 23.512 112.335 L 23.512 108.195 L 24.869 108.195 L 24.869 112.128 Q 24.869 112.871 25.168 113.218 Q 25.467 113.565 26.157 113.565 Q 26.825 113.565 27.124 113.218 Q 27.427 112.867 27.427 112.12 L 27.427 108.195 L 28.785 108.195 Z " fill="rgb(25,25,25)"/><path d=" M 31.699 114.62 L 30.358 114.62 L 30.358 108.195 L 34.041 108.195 L 34.041 109.311 L 31.699 109.311 L 31.699 110.968 L 33.878 110.968 L 33.878 112.08 L 31.699 112.08 L 31.699 114.62 Z " fill="rgb(25,25,25)"/><path d=" M 36.638 114.62 L 35.298 114.62 L 35.298 108.195 L 38.98 108.195 L 38.98 109.311 L 36.638 109.311 L 36.638 110.968 L 38.818 110.968 L 38.818 112.08 L 36.638 112.08 L 36.638 114.62 Z " fill="rgb(25,25,25)"/><path d=" M 43.937 114.62 L 40.237 114.62 L 40.237 108.195 L 43.937 108.195 L 43.937 109.311 L 41.599 109.311 L 41.599 110.722 L 43.775 110.722 L 43.775 111.838 L 41.599 111.838 L 41.599 113.495 L 43.937 113.495 L 43.937 114.62 Z " fill="rgb(25,25,25)"/><path d=" M 46.644 111.047 L 47.084 111.047 Q 47.73 111.047 48.037 110.832 Q 48.345 110.617 48.345 110.155 Q 48.345 109.698 48.029 109.505 Q 47.717 109.311 47.057 109.311 L 46.644 109.311 L 46.644 111.047 Z  M 46.644 112.155 L 46.644 114.62 L 45.282 114.62 L 45.282 108.195 L 47.154 108.195 Q 48.464 108.195 49.092 108.674 Q 49.721 109.149 49.721 110.12 Q 49.721 110.687 49.408 111.131 Q 49.096 111.57 48.525 111.821 Q 49.975 113.987 50.415 114.62 L 48.903 114.62 L 47.369 112.155 L 46.644 112.155 Z " fill="rgb(25,25,25)"/><path d=" M 57.354 112.836 Q 57.354 113.706 56.725 114.207 Q 56.101 114.708 54.985 114.708 Q 53.957 114.708 53.166 114.321 L 53.166 113.056 Q 53.816 113.346 54.264 113.464 Q 54.717 113.583 55.091 113.583 Q 55.539 113.583 55.776 113.412 Q 56.018 113.24 56.018 112.902 Q 56.018 112.713 55.912 112.568 Q 55.807 112.418 55.6 112.282 Q 55.398 112.146 54.77 111.847 Q 54.181 111.57 53.887 111.315 Q 53.592 111.06 53.416 110.722 Q 53.241 110.384 53.241 109.931 Q 53.241 109.078 53.816 108.591 Q 54.396 108.103 55.416 108.103 Q 55.917 108.103 56.369 108.222 Q 56.826 108.34 57.323 108.556 L 56.884 109.615 Q 56.369 109.404 56.031 109.32 Q 55.697 109.237 55.372 109.237 Q 54.985 109.237 54.779 109.417 Q 54.572 109.597 54.572 109.887 Q 54.572 110.067 54.656 110.203 Q 54.739 110.335 54.919 110.463 Q 55.104 110.586 55.785 110.911 Q 56.686 111.342 57.02 111.777 Q 57.354 112.207 57.354 112.836 L 57.354 112.836 Z " fill="rgb(25,25,25)"/><path d=" M 58.518 114.62 L 58.518 108.195 L 59.881 108.195 L 59.881 114.62 L 58.518 114.62 Z " fill="rgb(25,25,25)"/><path d=" M 65.695 114.62 L 60.913 114.62 L 60.913 113.737 L 63.994 109.32 L 60.997 109.32 L 60.997 108.195 L 65.611 108.195 L 65.611 109.074 L 62.535 113.495 L 65.695 113.495 L 65.695 114.62 Z " fill="rgb(25,25,25)"/><path d=" M 70.428 114.62 L 66.727 114.62 L 66.727 108.195 L 70.428 108.195 L 70.428 109.311 L 68.09 109.311 L 68.09 110.722 L 70.265 110.722 L 70.265 111.838 L 68.09 111.838 L 68.09 113.495 L 70.428 113.495 L 70.428 114.62 Z " fill="rgb(25,25,25)"/></g><path d=" M 39.085 31.527 L 39.085 30.016 L 42.483 30.016 L 42.483 34.457 L 42.483 34.457 Q 41.657 34.727 40.928 34.835 L 40.928 34.835 L 40.928 34.835 Q 40.198 34.943 39.436 34.943 L 39.436 34.943 L 39.436 34.943 Q 37.497 34.943 36.474 33.804 L 36.474 33.804 L 36.474 33.804 Q 35.452 32.664 35.452 30.531 L 35.452 30.531 L 35.452 30.531 Q 35.452 28.457 36.638 27.297 L 36.638 27.297 L 36.638 27.297 Q 37.825 26.137 39.929 26.137 L 39.929 26.137 L 39.929 26.137 Q 41.247 26.137 42.471 26.664 L 42.471 26.664 L 41.868 28.117 L 41.868 28.117 Q 40.93 27.648 39.917 27.648 L 39.917 27.648 L 39.917 27.648 Q 38.739 27.648 38.03 28.439 L 38.03 28.439 L 38.03 28.439 Q 37.321 29.23 37.321 30.566 L 37.321 30.566 L 37.321 30.566 Q 37.321 31.961 37.892 32.696 L 37.892 32.696 L 37.892 32.696 Q 38.464 33.432 39.554 33.432 L 39.554 33.432 L 39.554 33.432 Q 40.122 33.432 40.708 33.314 L 40.708 33.314 L 40.708 31.527 L 39.085 31.527 Z  M 49.79 34.826 L 48.542 34.826 L 48.196 33.936 L 48.149 33.936 L 48.149 33.936 Q 47.698 34.504 47.221 34.724 L 47.221 34.724 L 47.221 34.724 Q 46.743 34.943 45.975 34.943 L 45.975 34.943 L 45.975 34.943 Q 45.032 34.943 44.49 34.404 L 44.49 34.404 L 44.49 34.404 Q 43.948 33.865 43.948 32.869 L 43.948 32.869 L 43.948 32.869 Q 43.948 31.826 44.678 31.331 L 44.678 31.331 L 44.678 31.331 Q 45.407 30.836 46.878 30.783 L 46.878 30.783 L 48.014 30.748 L 48.014 30.461 L 48.014 30.461 Q 48.014 29.465 46.995 29.465 L 46.995 29.465 L 46.995 29.465 Q 46.21 29.465 45.149 29.939 L 45.149 29.939 L 44.557 28.732 L 44.557 28.732 Q 45.688 28.141 47.065 28.141 L 47.065 28.141 L 47.065 28.141 Q 48.384 28.141 49.087 28.715 L 49.087 28.715 L 49.087 28.715 Q 49.79 29.289 49.79 30.461 L 49.79 30.461 L 49.79 34.826 Z  M 48.014 32.33 L 48.014 31.791 L 47.323 31.814 L 47.323 31.814 Q 46.544 31.838 46.163 32.096 L 46.163 32.096 L 46.163 32.096 Q 45.782 32.354 45.782 32.881 L 45.782 32.881 L 45.782 32.881 Q 45.782 33.637 46.649 33.637 L 46.649 33.637 L 46.649 33.637 Q 47.27 33.637 47.642 33.279 L 47.642 33.279 L 47.642 33.279 Q 48.014 32.922 48.014 32.33 L 48.014 32.33 Z  M 54.389 33.52 L 54.389 33.52 L 54.389 33.52 Q 54.858 33.52 55.514 33.314 L 55.514 33.314 L 55.514 34.645 L 55.514 34.645 Q 54.846 34.943 53.874 34.943 L 53.874 34.943 L 53.874 34.943 Q 52.802 34.943 52.312 34.401 L 52.312 34.401 L 52.312 34.401 Q 51.823 33.859 51.823 32.775 L 51.823 32.775 L 51.823 29.617 L 50.968 29.617 L 50.968 28.861 L 51.952 28.264 L 52.468 26.881 L 53.61 26.881 L 53.61 28.275 L 55.444 28.275 L 55.444 29.617 L 53.61 29.617 L 53.61 32.775 L 53.61 32.775 Q 53.61 33.156 53.824 33.338 L 53.824 33.338 L 53.824 33.338 Q 54.038 33.52 54.389 33.52 Z  M 59.552 29.424 L 59.552 29.424 L 59.552 29.424 Q 58.983 29.424 58.661 29.784 L 58.661 29.784 L 58.661 29.784 Q 58.339 30.145 58.292 30.807 L 58.292 30.807 L 60.8 30.807 L 60.8 30.807 Q 60.788 30.145 60.454 29.784 L 60.454 29.784 L 60.454 29.784 Q 60.12 29.424 59.552 29.424 Z  M 59.804 34.943 L 59.804 34.943 L 59.804 34.943 Q 58.221 34.943 57.331 34.07 L 57.331 34.07 L 57.331 34.07 Q 56.44 33.197 56.44 31.598 L 56.44 31.598 L 56.44 31.598 Q 56.44 29.951 57.263 29.052 L 57.263 29.052 L 57.263 29.052 Q 58.087 28.152 59.54 28.152 L 59.54 28.152 L 59.54 28.152 Q 60.929 28.152 61.702 28.943 L 61.702 28.943 L 61.702 28.943 Q 62.475 29.734 62.475 31.129 L 62.475 31.129 L 62.475 31.996 L 58.251 31.996 L 58.251 31.996 Q 58.28 32.758 58.702 33.186 L 58.702 33.186 L 58.702 33.186 Q 59.124 33.613 59.886 33.613 L 59.886 33.613 L 59.886 33.613 Q 60.477 33.613 61.005 33.49 L 61.005 33.49 L 61.005 33.49 Q 61.532 33.367 62.106 33.098 L 62.106 33.098 L 62.106 34.48 L 62.106 34.48 Q 61.638 34.715 61.104 34.829 L 61.104 34.829 L 61.104 34.829 Q 60.571 34.943 59.804 34.943 Z  M 68.499 32.881 L 68.499 32.881 L 68.499 32.881 Q 68.499 33.889 67.799 34.416 L 67.799 34.416 L 67.799 34.416 Q 67.098 34.943 65.704 34.943 L 65.704 34.943 L 65.704 34.943 Q 64.989 34.943 64.485 34.847 L 64.485 34.847 L 64.485 34.847 Q 63.981 34.75 63.542 34.563 L 63.542 34.563 L 63.542 33.086 L 63.542 33.086 Q 64.04 33.32 64.664 33.479 L 64.664 33.479 L 64.664 33.479 Q 65.288 33.637 65.762 33.637 L 65.762 33.637 L 65.762 33.637 Q 66.735 33.637 66.735 33.074 L 66.735 33.074 L 66.735 33.074 Q 66.735 32.863 66.606 32.731 L 66.606 32.731 L 66.606 32.731 Q 66.477 32.6 66.161 32.433 L 66.161 32.433 L 66.161 32.433 Q 65.845 32.266 65.317 32.043 L 65.317 32.043 L 65.317 32.043 Q 64.561 31.727 64.207 31.457 L 64.207 31.457 L 64.207 31.457 Q 63.852 31.188 63.691 30.839 L 63.691 30.839 L 63.691 30.839 Q 63.53 30.49 63.53 29.98 L 63.53 29.98 L 63.53 29.98 Q 63.53 29.107 64.207 28.63 L 64.207 28.63 L 64.207 28.63 Q 64.884 28.152 66.126 28.152 L 66.126 28.152 L 66.126 28.152 Q 67.309 28.152 68.429 28.668 L 68.429 28.668 L 67.889 29.957 L 67.889 29.957 Q 67.397 29.746 66.97 29.611 L 66.97 29.611 L 66.97 29.611 Q 66.542 29.477 66.096 29.477 L 66.096 29.477 L 66.096 29.477 Q 65.305 29.477 65.305 29.904 L 65.305 29.904 L 65.305 29.904 Q 65.305 30.145 65.56 30.32 L 65.56 30.32 L 65.56 30.32 Q 65.815 30.496 66.677 30.842 L 66.677 30.842 L 66.677 30.842 Q 67.444 31.152 67.802 31.422 L 67.802 31.422 L 67.802 31.422 Q 68.159 31.691 68.329 32.043 L 68.329 32.043 L 68.329 32.043 Q 68.499 32.395 68.499 32.881 Z  M 71.692 26.26 L 71.393 31.984 L 69.964 31.984 L 69.665 26.26 L 71.692 26.26 Z  M 69.641 33.988 L 69.641 33.988 L 69.641 33.988 Q 69.641 33.496 69.905 33.244 L 69.905 33.244 L 69.905 33.244 Q 70.169 32.992 70.673 32.992 L 70.673 32.992 L 70.673 32.992 Q 71.159 32.992 71.426 33.25 L 71.426 33.25 L 71.426 33.25 Q 71.692 33.508 71.692 33.988 L 71.692 33.988 L 71.692 33.988 Q 71.692 34.451 71.423 34.718 L 71.423 34.718 L 71.423 34.718 Q 71.153 34.984 70.673 34.984 L 70.673 34.984 L 70.673 34.984 Q 70.18 34.984 69.911 34.724 L 69.911 34.724 L 69.911 34.724 Q 69.641 34.463 69.641 33.988 Z  M 23.054 30.531 L 23.054 30.531 L 23.054 30.531 Q 23.054 32.658 21.999 33.801 L 21.999 33.801 L 21.999 33.801 Q 20.944 34.943 18.975 34.943 L 18.975 34.943 L 18.975 34.943 Q 17.007 34.943 15.952 33.801 L 15.952 33.801 L 15.952 33.801 Q 14.897 32.658 14.897 30.52 L 14.897 30.52 L 14.897 30.52 Q 14.897 28.381 15.955 27.253 L 15.955 27.253 L 15.955 27.253 Q 17.013 26.125 18.987 26.125 L 18.987 26.125 L 18.987 26.125 Q 20.962 26.125 22.008 27.262 L 22.008 27.262 L 22.008 27.262 Q 23.054 28.398 23.054 30.531 Z  M 16.802 30.531 L 16.802 30.531 L 16.802 30.531 Q 16.802 31.967 17.346 32.693 L 17.346 32.693 L 17.346 32.693 Q 17.891 33.42 18.975 33.42 L 18.975 33.42 L 18.975 33.42 Q 21.149 33.42 21.149 30.531 L 21.149 30.531 L 21.149 30.531 Q 21.149 27.637 18.987 27.637 L 18.987 27.637 L 18.987 27.637 Q 17.903 27.637 17.352 28.366 L 17.352 28.366 L 17.352 28.366 Q 16.802 29.096 16.802 30.531 Z  M 30.735 30.555 L 30.735 34.826 L 28.948 34.826 L 28.948 31 L 28.948 31 Q 28.948 29.582 27.893 29.582 L 27.893 29.582 L 27.893 29.582 Q 27.143 29.582 26.809 30.092 L 26.809 30.092 L 26.809 30.092 Q 26.475 30.602 26.475 31.744 L 26.475 31.744 L 26.475 34.826 L 24.688 34.826 L 24.688 25.709 L 26.475 25.709 L 26.475 27.566 L 26.475 27.566 Q 26.475 27.783 26.434 28.586 L 26.434 28.586 L 26.393 29.113 L 26.487 29.113 L 26.487 29.113 Q 27.085 28.152 28.386 28.152 L 28.386 28.152 L 28.386 28.152 Q 29.54 28.152 30.138 28.773 L 30.138 28.773 L 30.138 28.773 Q 30.735 29.395 30.735 30.555 L 30.735 30.555 Z " fill="rgb(0,0,0)"/></g></g><g><path d=" M 27.442 338.64 L 27.774 338.562 L 27.774 338.562 Q 29.747 338.562 31.134 341.706 L 31.134 341.706 L 31.407 342.995 L 31.407 342.995 Q 31.407 345.358 28.321 345.769 L 28.321 345.769 L 28.184 345.769 L 28.184 345.769 Q 27.481 345.769 26.915 345.398 L 26.915 345.398 L 26.72 345.398 L 26.72 345.398 Q 27.013 353.483 27.013 356.257 L 27.013 356.257 L 27.013 356.257 Q 26.837 356.94 26.388 356.94 L 26.388 356.94 L 26.388 356.94 Q 25.763 356.94 25.763 355.944 L 25.763 355.944 L 25.763 355.69 L 25.763 355.69 Q 25.763 352.683 25.548 345.202 L 25.548 345.202 L 25.548 345.202 Q 25.294 341.882 25.294 340.105 L 25.294 340.105 L 25.294 339.694 L 25.294 339.694 Q 25.294 338.698 25.899 338.698 L 25.899 338.698 L 26.173 338.698 L 26.173 338.698 Q 26.524 338.913 26.524 339.245 L 26.524 339.245 L 26.524 339.245 Q 27.149 338.64 27.442 338.64 L 27.442 338.64 Z  M 27.032 341.843 L 27.032 341.843 L 27.032 341.843 Q 26.68 344.597 28.067 344.597 L 28.067 344.597 L 28.38 344.597 L 28.38 344.597 Q 29.962 344.597 30.235 343.112 L 30.235 343.112 L 30.235 342.937 L 30.235 342.937 Q 30.235 341.628 28.868 340.241 L 28.868 340.241 L 28.868 340.241 Q 28.302 339.733 27.833 339.733 L 27.833 339.733 L 27.833 339.733 Q 27.188 339.694 27.032 341.843 Z  M 35.919 328.933 L 35.919 328.933 L 35.919 328.933 Q 37.325 328.933 37.716 331.276 L 37.716 331.276 L 37.774 331.472 L 37.833 331.472 L 37.833 331.472 Q 37.833 331.94 37.091 331.999 L 37.091 331.999 L 37.091 331.999 Q 36.661 331.999 36.309 330.339 L 36.309 330.339 L 35.977 330.085 L 35.919 330.085 L 35.919 330.085 Q 34.884 330.085 34.884 334.831 L 34.884 334.831 L 35.059 339.03 L 35.606 339.03 L 35.606 339.03 Q 36.602 339.03 36.602 339.714 L 36.602 339.714 L 36.602 339.714 Q 36.602 340.085 36.055 340.202 L 36.055 340.202 L 35.177 340.202 L 35.177 340.261 L 35.177 340.261 Q 35.372 344.831 35.606 345.905 L 35.606 345.905 L 35.606 345.905 Q 35.45 346.53 35.059 346.53 L 35.059 346.53 L 35.059 346.53 Q 34.2 346.53 34.2 343.405 L 34.2 343.405 L 33.966 340.261 L 33.321 340.319 L 32.598 340.319 L 32.598 340.319 Q 32.091 340.319 32.052 339.714 L 32.052 339.714 L 32.052 339.714 Q 32.052 339.148 32.97 339.148 L 32.97 339.148 L 33.575 339.148 L 33.888 339.069 L 33.692 334.538 L 33.692 334.538 Q 33.692 328.933 35.919 328.933 Z  M 37.989 338.718 L 37.989 338.718 L 38.77 338.913 L 39.591 338.913 L 39.591 338.913 Q 42.169 338.913 42.169 339.773 L 42.169 339.773 L 42.169 339.773 Q 41.622 341.101 39.786 344.206 L 39.786 344.206 L 39.649 344.558 L 39.649 344.636 L 40.567 344.694 L 41.739 344.694 L 41.739 344.694 Q 42.559 344.694 43.653 344.382 L 43.653 344.382 L 43.653 344.382 Q 44.141 344.636 44.141 344.948 L 44.141 344.948 L 44.141 344.948 Q 44.141 345.73 41.739 345.866 L 41.739 345.866 L 41.055 345.866 L 41.055 345.866 Q 38.165 345.866 38.165 345.124 L 38.165 345.124 L 38.165 345.124 Q 38.165 344.616 40.763 340.261 L 40.763 340.261 L 40.763 340.124 L 40.704 340.085 L 39.044 340.085 L 39.044 340.085 Q 37.423 339.968 37.423 339.343 L 37.423 339.343 L 37.423 339.343 Q 37.423 338.913 37.989 338.718 Z  M 45.391 338.718 L 45.391 338.718 L 46.173 338.913 L 46.993 338.913 L 46.993 338.913 Q 49.571 338.913 49.571 339.773 L 49.571 339.773 L 49.571 339.773 Q 49.024 341.101 47.188 344.206 L 47.188 344.206 L 47.052 344.558 L 47.052 344.636 L 47.97 344.694 L 49.141 344.694 L 49.141 344.694 Q 49.962 344.694 51.055 344.382 L 51.055 344.382 L 51.055 344.382 Q 51.544 344.636 51.544 344.948 L 51.544 344.948 L 51.544 344.948 Q 51.544 345.73 49.141 345.866 L 49.141 345.866 L 48.458 345.866 L 48.458 345.866 Q 45.567 345.866 45.567 345.124 L 45.567 345.124 L 45.567 345.124 Q 45.567 344.616 48.165 340.261 L 48.165 340.261 L 48.165 340.124 L 48.106 340.085 L 46.446 340.085 L 46.446 340.085 Q 44.825 339.968 44.825 339.343 L 44.825 339.343 L 44.825 339.343 Q 44.825 338.913 45.391 338.718 Z  M 52.794 338.718 L 52.794 338.718 L 53.575 338.913 L 54.395 338.913 L 54.395 338.913 Q 56.973 338.913 56.973 339.773 L 56.973 339.773 L 56.973 339.773 Q 56.427 341.101 54.591 344.206 L 54.591 344.206 L 54.454 344.558 L 54.454 344.636 L 55.372 344.694 L 56.544 344.694 L 56.544 344.694 Q 57.364 344.694 58.458 344.382 L 58.458 344.382 L 58.458 344.382 Q 58.946 344.636 58.946 344.948 L 58.946 344.948 L 58.946 344.948 Q 58.946 345.73 56.544 345.866 L 56.544 345.866 L 55.86 345.866 L 55.86 345.866 Q 52.97 345.866 52.97 345.124 L 52.97 345.124 L 52.97 345.124 Q 52.97 344.616 55.567 340.261 L 55.567 340.261 L 55.567 340.124 L 55.509 340.085 L 53.848 340.085 L 53.848 340.085 Q 52.227 339.968 52.227 339.343 L 52.227 339.343 L 52.227 339.343 Q 52.227 338.913 52.794 338.718 Z " fill="rgb(0,0,0)"/></g></g></svg>